<mxfile host="65bd71144e">
    <diagram id="S0Rh4usZT3OgpUZ2hzQ0" name="第 1 页">
        <mxGraphModel dx="3516" dy="1580" grid="1" gridSize="10" guides="1" tooltips="1" connect="1" arrows="1" fold="1" page="1" pageScale="1" pageWidth="1169" pageHeight="827" math="0" shadow="0">
            <root>
                <mxCell id="0"/>
                <mxCell id="1" parent="0"/>
                <mxCell id="5" value="" style="strokeWidth=1;shadow=0;dashed=0;align=center;html=1;shape=mxgraph.mockup.containers.browserWindow;rSize=0;strokeColor=#666666;strokeColor2=#008cff;strokeColor3=#c4c4c4;mainText=,;recursiveResize=0;" parent="1" vertex="1">
                    <mxGeometry width="1360" height="1176" as="geometry"/>
                </mxCell>
                <mxCell id="6" value="Page 1" style="strokeWidth=1;shadow=0;dashed=0;align=center;html=1;shape=mxgraph.mockup.containers.anchor;fontSize=17;fontColor=#666666;align=left;" parent="5" vertex="1">
                    <mxGeometry x="60" y="12" width="110" height="26" as="geometry"/>
                </mxCell>
                <mxCell id="7" value="https://www.draw.io" style="strokeWidth=1;shadow=0;dashed=0;align=center;html=1;shape=mxgraph.mockup.containers.anchor;rSize=0;fontSize=17;fontColor=#666666;align=left;" parent="5" vertex="1">
                    <mxGeometry x="130" y="60" width="250" height="26" as="geometry"/>
                </mxCell>
                <mxCell id="8" value="" style="rounded=0;whiteSpace=wrap;html=1;" parent="5" vertex="1">
                    <mxGeometry y="250" width="200" height="760" as="geometry"/>
                </mxCell>
                <mxCell id="9" value="" style="rounded=0;whiteSpace=wrap;html=1;" parent="5" vertex="1">
                    <mxGeometry x="200" y="190" width="1160" height="820" as="geometry"/>
                </mxCell>
                <mxCell id="10" value="首页" style="rounded=0;whiteSpace=wrap;html=1;fontSize=20;fillColor=#000066;" parent="5" vertex="1">
                    <mxGeometry y="190" width="200" height="70" as="geometry"/>
                </mxCell>
                <mxCell id="11" value="社团成员" style="rounded=0;whiteSpace=wrap;html=1;fontSize=20;" parent="5" vertex="1">
                    <mxGeometry y="260" width="200" height="70" as="geometry"/>
                </mxCell>
                <mxCell id="12" value="社团活动" style="rounded=0;whiteSpace=wrap;html=1;fontSize=20;" parent="5" vertex="1">
                    <mxGeometry y="400" width="200" height="70" as="geometry"/>
                </mxCell>
                <mxCell id="13" value="审批提交" style="rounded=0;whiteSpace=wrap;html=1;fontSize=20;" parent="5" vertex="1">
                    <mxGeometry y="470" width="200" height="70" as="geometry"/>
                </mxCell>
                <mxCell id="14" value="论坛公告" style="rounded=0;whiteSpace=wrap;html=1;fontSize=20;" parent="5" vertex="1">
                    <mxGeometry y="540" width="200" height="70" as="geometry"/>
                </mxCell>
                <mxCell id="15" value="修改信息" style="rounded=0;whiteSpace=wrap;html=1;fontSize=20;" parent="5" vertex="1">
                    <mxGeometry y="610" width="200" height="70" as="geometry"/>
                </mxCell>
                <mxCell id="16" value="返回首页" style="rounded=0;whiteSpace=wrap;html=1;fontSize=20;" parent="5" vertex="1">
                    <mxGeometry y="680" width="200" height="70" as="geometry"/>
                </mxCell>
                <mxCell id="17" value="成员管理&lt;br style=&quot;font-size: 18px;&quot;&gt;审批管理" style="rounded=0;whiteSpace=wrap;html=1;fontSize=18;" parent="5" vertex="1">
                    <mxGeometry x="30" y="330" width="170" height="70" as="geometry"/>
                </mxCell>
                <mxCell id="18" value="Easy社团后台管理" style="text;html=1;strokeColor=none;fillColor=none;align=center;verticalAlign=middle;whiteSpace=wrap;rounded=0;fontSize=32;" parent="5" vertex="1">
                    <mxGeometry y="120" width="330" height="70" as="geometry"/>
                </mxCell>
                <mxCell id="19" value="" style="ellipse;whiteSpace=wrap;html=1;aspect=fixed;fontSize=32;" parent="5" vertex="1">
                    <mxGeometry x="1090" y="120" width="60" height="60" as="geometry"/>
                </mxCell>
                <mxCell id="21" value="当前社团人数：&lt;br&gt;&lt;br&gt;200 人" style="rounded=0;whiteSpace=wrap;html=1;fillColor=#333333;" parent="5" vertex="1">
                    <mxGeometry x="260" y="520" width="250" height="120" as="geometry"/>
                </mxCell>
                <mxCell id="22" value="当前论坛总帖数：&lt;br&gt;&lt;br&gt;200&amp;nbsp;" style="rounded=0;whiteSpace=wrap;html=1;fillColor=#333333;" parent="5" vertex="1">
                    <mxGeometry x="630" y="525" width="250" height="120" as="geometry"/>
                </mxCell>
                <mxCell id="41" value="" style="rounded=0;whiteSpace=wrap;html=1;fillColor=#333333;" parent="5" vertex="1">
                    <mxGeometry x="255" y="210" width="1000" height="270" as="geometry"/>
                </mxCell>
                <mxCell id="43" value="&lt;h1&gt;&lt;font style=&quot;font-size: 36px&quot;&gt;国学社&lt;/font&gt;&lt;/h1&gt;&lt;p style=&quot;font-size: 16px&quot;&gt;国学社是一个巴拉巴拉的社团简介&lt;/p&gt;&lt;p style=&quot;font-size: 16px&quot;&gt;&lt;br style=&quot;font-size: 16px&quot;&gt;&lt;/p&gt;&lt;p style=&quot;font-size: 16px&quot;&gt;社团负责人：某某某&lt;/p&gt;&lt;p style=&quot;font-size: 16px&quot;&gt;社团单位：社团联合会&lt;/p&gt;&lt;p style=&quot;font-size: 16px&quot;&gt;社团Logo：&lt;/p&gt;&lt;p style=&quot;font-size: 16px&quot;&gt;&lt;br style=&quot;font-size: 16px&quot;&gt;&lt;/p&gt;" style="text;html=1;strokeColor=none;fillColor=none;spacing=5;spacingTop=-20;whiteSpace=wrap;overflow=hidden;rounded=0;fontSize=16;" parent="5" vertex="1">
                    <mxGeometry x="255" y="210" width="995" height="260" as="geometry"/>
                </mxCell>
                <mxCell id="44" value="" style="rounded=0;whiteSpace=wrap;html=1;fontSize=16;fillColor=#333333;" parent="5" vertex="1">
                    <mxGeometry x="255" y="670" width="1015" height="330" as="geometry"/>
                </mxCell>
                <mxCell id="46" value="" style="strokeWidth=1;shadow=0;dashed=0;align=center;html=1;shape=mxgraph.mockup.containers.marginRect2;rectMarginLeft=67;strokeColor=#666666;gradientColor=none;fontSize=16;" parent="5" vertex="1">
                    <mxGeometry x="330" y="730" width="910" height="260" as="geometry"/>
                </mxCell>
                <mxCell id="47" value="个人活跃度" style="strokeColor=inherit;fillColor=inherit;gradientColor=inherit;strokeWidth=1;shadow=0;dashed=0;align=center;html=1;shape=mxgraph.mockup.containers.rrect;rSize=0;fontSize=17;fontColor=#666666;" parent="46" vertex="1">
                    <mxGeometry width="120" height="25" relative="1" as="geometry">
                        <mxPoint x="-60" y="10" as="offset"/>
                    </mxGeometry>
                </mxCell>
                <mxCell id="48" value="每周活跃度" style="strokeWidth=1;shadow=0;dashed=0;align=center;html=1;shape=mxgraph.mockup.containers.rrect;rSize=0;fontSize=17;fontColor=#ffffff;strokeColor=#008cff;fillColor=#008cff;" parent="46" vertex="1">
                    <mxGeometry width="120" height="25" relative="1" as="geometry">
                        <mxPoint x="-60" y="40" as="offset"/>
                    </mxGeometry>
                </mxCell>
                <mxCell id="50" value="" style="strokeWidth=1;shadow=0;dashed=0;align=center;html=1;shape=mxgraph.mockup.containers.leftButton;rSize=5;strokeColor=#008cff;fillColor=#008cff;resizeHeight=1;movable=0;deletable=0;" parent="46" vertex="1">
                    <mxGeometry width="7" height="151.5695067264574" relative="1" as="geometry">
                        <mxPoint x="60" as="offset"/>
                    </mxGeometry>
                </mxCell>
                <mxCell id="51" value="" style="shape=image;verticalLabelPosition=bottom;labelBackgroundColor=#ffffff;verticalAlign=top;aspect=fixed;imageAspect=0;image=https://img.51miz.com/Element/00/91/77/13/39342939_E917713_86e7158c.png;" vertex="1" parent="46">
                    <mxGeometry x="110" y="8.74" width="301.57" height="241.26" as="geometry"/>
                </mxCell>
                <mxCell id="52" value="社团邮箱" style="rounded=0;whiteSpace=wrap;html=1;fontSize=16;fillColor=#333333;" vertex="1" parent="5">
                    <mxGeometry x="950" y="220" width="290" height="250" as="geometry"/>
                </mxCell>
                <mxCell id="20" value="admin" style="text;html=1;strokeColor=none;fillColor=none;align=center;verticalAlign=middle;whiteSpace=wrap;rounded=0;fontSize=32;" parent="1" vertex="1">
                    <mxGeometry x="1169" y="130" width="100" height="30" as="geometry"/>
                </mxCell>
                <mxCell id="40" value="待举行活动：&lt;br&gt;&lt;br&gt;3" style="rounded=0;whiteSpace=wrap;html=1;fillColor=#333333;" parent="1" vertex="1">
                    <mxGeometry x="990" y="525" width="250" height="120" as="geometry"/>
                </mxCell>
                <mxCell id="45" value="社团成员活跃度：（计算出一个百分比，然后下面是柱状图和折线图）" style="text;html=1;strokeColor=none;fillColor=none;align=center;verticalAlign=middle;whiteSpace=wrap;rounded=0;fontSize=16;" parent="1" vertex="1">
                    <mxGeometry x="270" y="680" width="900" height="40" as="geometry"/>
                </mxCell>
            </root>
        </mxGraphModel>
    </diagram>
</mxfile>